# xmcd
#
# Track frame offsets:
# 150
# 14298
# 48772
# 65704
# 100944
# 140696
# 164989
# 200365
# 216043
# 245045
#
# Disc length: 3640 seconds
#
# Revision: 1
# Processed by: cddbd v1.5.1PL0 Copyright (c) Steve Scherf et al.
# Submitted via: Easy CD Ripper 1.45
#
DISCID=970e360a
DTITLE=Jimi Hendrix - Blues
DYEAR=1998
DGENRE=Blues
TTITLE0=Hear My Train Comin' (Acoustic)
TTITLE1=Jimi Hendrix - Born Under a Bad Sign
TTITLE2=Jimi Hendrix - Red House
TTITLE3=Jimi Hendrix - Catfish Blues
TTITLE4=Jimi Hendrix - Voodoo Chile Blues
TTITLE5=Jimi Hendrix - Mannish Boy
TTITLE6=Jimi Hendrix - Once I Had a Woman
TTITLE7=Jimi Hendrix - Bleeding Heart
TTITLE8=Jimi Hendrix - Jelly 292
TTITLE9=Jimi Hendrix - Electric Church Red House
EXTD=
EXTT0=
EXTT1=
EXTT2=
EXTT3=
EXTT4=
EXTT5=
EXTT6=
EXTT7=
EXTT8=
EXTT9=
PLAYORDER=
